<svg width="320" height="223" viewBox="0 0 320 223" fill="none" xmlns="http://www.w3.org/2000/svg">
<path opacity="0.7" fill-rule="evenodd" clip-rule="evenodd" d="M0 217.784C8.95922 214.666 18.0874 210.195 27.1044 204.492C30.1393 208.259 33.6963 211.551 37.7802 214.293C60.0435 229.241 92.6759 224.281 123.966 204.475C127.005 208.249 130.568 211.547 134.659 214.293C156.924 229.237 189.554 224.284 220.847 204.493C223.882 208.259 227.439 211.551 231.522 214.293C253.786 229.241 286.419 224.281 317.709 204.475C318.442 205.385 319.206 206.268 320 207.122V204.141C319.793 203.896 319.588 203.648 319.386 203.399C319.59 203.265 319.795 203.131 320 202.997V200.648C319.394 201.054 318.788 201.454 318.181 201.849C309.22 189.825 305.33 173.068 306.592 153.816C307.625 138.05 312.117 120.741 320 103.282V98.5681C300.577 139.033 299.046 179.418 316.507 202.921C310.263 206.867 303.971 210.209 297.729 212.908C273.101 223.557 249.601 224.073 232.665 212.701C228.805 210.11 225.424 206.993 222.524 203.417C226.105 201.088 229.666 198.564 233.19 195.855V193.372C229.272 196.442 225.307 199.278 221.319 201.868C212.351 189.843 208.457 173.078 209.719 153.816C211.423 127.819 222.526 97.6281 242.728 69.4836C257.355 49.1053 274.689 32.6741 292.475 21.122C299.776 30.9018 303.716 43.8187 304.255 58.6656H306.257C305.718 43.5392 301.712 30.2137 294.149 20.0499C300.379 16.1169 306.656 12.7843 312.882 10.0919C315.267 9.06073 317.641 8.12456 320 7.28499V5.22486C311.057 8.34037 301.947 12.8046 292.947 18.4972C289.912 14.7352 286.357 11.4464 282.276 8.70688C260.001 -6.24384 227.35 -1.27901 196.044 18.5349C193.005 14.7572 189.44 11.4555 185.347 8.70688C163.094 -6.23444 130.481 -1.28524 99.2037 18.4976C96.1695 14.7354 92.614 11.4465 88.5324 8.70688C66.2577 -6.24389 33.6068 -1.27898 2.30099 18.5351C1.56478 17.6202 0.797811 16.7331 0 15.8751V18.8557C0.210634 19.1052 0.41884 19.357 0.624618 19.6112C0.416342 19.7467 0.208135 19.883 0 20.0198V22.3679C0.608851 21.96 1.21833 21.5578 1.82834 21.1613C10.7811 33.1839 14.6673 49.937 13.4061 69.184C12.3729 84.9518 7.88177 102.262 0 119.723V124.438C19.4162 83.9764 20.9504 43.595 3.50186 20.0888C9.7541 16.1388 16.0536 12.793 22.303 10.0917C46.9393 -0.557365 70.4473 -1.07342 87.3897 10.2983C91.2478 12.8879 94.6276 16.0014 97.5266 19.5734C79.5408 31.2729 62.0674 47.8638 47.3415 68.3796C11.9182 117.73 4.05342 173.547 25.9023 202.939C19.6647 206.877 13.3802 210.213 7.1456 212.908C4.75141 213.943 2.36788 214.882 0 215.724V217.784ZM27.5763 201.867C18.6084 189.843 14.715 173.078 15.9772 153.816C17.6807 127.819 28.7841 97.6281 48.9857 69.4836C63.6127 49.1055 80.9465 32.6745 98.7324 21.1224C106.033 30.9022 109.973 43.8189 110.511 58.6656H112.514C111.975 43.5394 107.969 30.214 100.407 20.0503C106.637 16.1171 112.913 12.7844 119.14 10.0919C143.768 -0.557108 167.268 -1.07305 184.204 10.2985C188.075 12.8971 191.463 16.0233 194.368 19.611C176.397 31.3084 158.939 47.8857 144.224 68.3796C108.796 117.721 100.924 173.525 122.765 202.922C116.52 206.867 110.229 210.209 103.987 212.908C79.3589 223.557 55.8591 224.073 38.9227 212.701C35.0623 210.11 31.6811 206.993 28.7812 203.417C32.3625 201.087 35.9235 198.564 39.4465 195.855V193.372C35.5294 196.442 31.5642 199.277 27.5763 201.867ZM281.133 10.2983C284.991 12.8878 288.37 16.0011 291.269 19.5729C273.283 31.2725 255.81 47.8635 241.084 68.3796C205.66 117.731 197.796 173.548 219.645 202.94C213.407 206.877 207.123 210.214 200.889 212.908C176.252 223.557 152.745 224.073 135.802 212.702C131.934 210.105 128.547 206.983 125.643 203.399C143.614 191.701 161.071 175.12 175.786 154.62C211.198 105.285 219.069 49.4879 197.245 20.0886C203.497 16.1386 209.797 12.7929 216.046 10.0917C240.682 -0.557365 264.19 -1.07342 281.133 10.2983ZM124.438 201.849C142.209 190.299 159.526 173.878 174.141 153.516C194.343 125.372 205.446 95.181 207.15 69.184C208.411 49.9369 204.525 33.1837 195.572 21.1611C177.801 32.7112 160.484 49.1282 145.868 69.4834C125.66 97.6278 114.553 127.819 112.849 153.816C111.587 173.068 115.477 189.826 124.438 201.849Z" fill="#1D1D1D"/>
</svg>
